<svg xmlns="http://www.w3.org/2000/svg" version="1.1" xmlns:xlink="http://www.w3.org/1999/xlink" width="512" height="512"><svg xmlns="http://www.w3.org/2000/svg" version="1.1" xmlns:xlink="http://www.w3.org/1999/xlink" width="512" height="512"><svg height="512" version="1.1" width="512" xmlns="http://www.w3.org/2000/svg"><path d="M0 0 L4.53 -0.01 l12.4 -0.01 l13.39 -0.02 l26.22 -0.02 l21.33 -0.01 C98.05 -0.1 118.22 -0.11 138.4 -0.1 l3.29 0 l3.3 0 c17.63 0 35.25 -0.02 52.88 -0.05 c18.12 -0.03 36.23 -0.04 54.35 -0.04 c10.16 0 20.33 -0.01 30.49 -0.03 c8.66 -0.02 17.31 -0.02 25.97 -0.01 c4.41 0.01 8.82 0.01 13.23 -0.01 c4.05 -0.02 8.1 -0.01 12.14 0 l4.36 -0.01 c24.16 -0.18 45.45 8.57 62.68 25.51 l2.34 2.3 c15.69 16.39 21.98 37.31 21.92 59.6 l0.01 4.53 l0.01 12.4 l0.02 13.39 l0.02 26.22 l0.01 21.33 c0.02 20.17 0.03 40.35 0.03 60.52 l0 3.29 l0 3.3 c-0 17.63 0.02 35.25 0.05 52.88 c0.03 18.12 0.04 36.23 0.04 54.35 c0 10.16 0 20.33 0.03 30.49 c0.02 8.66 0.02 17.31 0.01 25.97 c-0.01 4.41 -0.01 8.82 0.01 13.23 c0.02 4.05 0.01 8.1 -0 12.15 l0.01 4.36 c0.17 24.16 -8.57 45.45 -25.51 62.67 l-2.31 2.34 c-16.38 15.69 -37.31 21.98 -59.6 21.92 l-4.53 0.01 l-12.4 0.01 l-13.39 0.02 l-26.22 0.02 l-21.33 0.01 c-20.17 0.02 -40.35 0.03 -60.52 0.02 l-3.29 0 l-3.3 0 c-17.63 -0 -35.25 0.02 -52.88 0.05 c-18.12 0.03 -36.23 0.04 -54.35 0.04 c-10.16 -0 -20.33 0 -30.49 0.03 c-8.66 0.02 -17.31 0.02 -25.97 0.01 c-4.41 -0.01 -8.82 -0.01 -13.23 0.01 c-4.05 0.02 -8.1 0.01 -12.15 -0 l-4.36 0.01 c-24.16 0.17 -45.45 -8.57 -62.67 -25.51 l-2.34 -2.3 c-15.69 -16.39 -21.98 -37.31 -21.92 -59.6 l-0.01 -4.53 l-0.01 -12.4 l-0.02 -13.39 l-0.02 -26.22 l-0.01 -21.33 c-0.02 -20.18 -0.03 -40.35 -0.03 -60.52 l0 -3.29 l0 -3.3 c0 -17.63 -0.02 -35.25 -0.05 -52.88 c-0.03 -18.12 -0.04 -36.23 -0.04 -54.35 c0 -10.16 -0.01 -20.33 -0.03 -30.49 C-87.41 134 -87.41 125.34 -87.4 116.68 c0.01 -4.41 0.01 -8.82 -0.01 -13.23 c-0.02 -4.05 -0.01 -8.1 0 -12.14 l-0.01 -4.36 c-0.17 -24.16 8.57 -45.45 25.51 -62.68 l2.3 -2.34 C-43.22 6.24 -22.29 -0.05 0 0 Z" fill="#FE690D" transform="translate(86.91 -0.27)" data-darkreader-inline-fill="" style="--darkreader-inline-fill: var(--darkreader-background-fe690d, #c44b01);"></path>
<path d="M0 0 C10.06 8.84 19.12 18.33 27.43 28.82 c16.17 21.1 16.17 21.1 37 37 l3.25 1.88 c22.74 6.82 48.41 -6.96 68.5 -16.06 c16.09 -7.27 30.31 -11.86 48.08 -11.82 l3.51 0.01 l2.66 0.01 c0.09 15.63 0.16 31.26 0.21 46.89 c0.02 7.26 0.05 14.52 0.09 21.78 c0.04 6.33 0.07 12.67 0.08 19 c0 3.35 0.02 6.69 0.05 10.04 c0.22 28.65 -4.63 52.15 -25.42 73.29 l-2.31 2.34 c-16.38 15.69 -37.31 21.98 -59.6 21.92 l-4.53 0.01 l-12.4 0.01 l-13.39 0.02 l-26.22 0.02 l-21.33 0.01 c-20.18 0.02 -40.35 0.03 -60.52 0.03 l-3.29 0 l-3.3 0 c-17.63 -0 -35.25 0.02 -52.88 0.05 c-18.12 0.03 -36.23 0.04 -54.35 0.04 c-10.16 -0 -20.33 0 -30.49 0.03 c-8.66 0.02 -17.31 0.02 -25.97 0.01 c-4.41 -0.01 -8.82 -0.01 -13.23 0.01 c-4.05 0.02 -8.1 0.01 -12.15 -0 l-4.36 0.01 c-24.16 0.18 -45.45 -8.57 -62.67 -25.51 l-2.34 -2.3 c-14.8 -15.46 -22.02 -35.82 -21.88 -57.01 l-0 -3.64 l0.02 -9.8 l0.02 -10.27 l0.04 -19.41 l0.04 -22.11 c0.02 -15.15 0.06 -30.3 0.1 -45.46 l7.19 -0.05 l2.04 -0.02 c5.37 -0.02 10.13 0.63 15.28 2.07 l2.51 0.67 c14.19 3.9 27.97 9.14 41.68 14.46 c7.01 2.72 14.05 5.15 21.25 7.31 l2.49 0.75 c11.59 3.38 27.52 6.18 38.69 0.38 c5.44 -3.61 10.21 -8.02 14.88 -12.56 l1.79 -1.64 c4.46 -4.19 8.13 -8.98 11.87 -13.81 c4.92 -6.35 10.1 -12.46 15.34 -18.55 l1.82 -2.17 c17.8 -20.9 40.38 -38.12 68.57 -40.64 C-47.04 -26.16 -22.31 -18.95 0 0 Z" fill="#FEFEFE" transform="translate(321.57 277.18)" data-darkreader-inline-fill="" style="--darkreader-inline-fill: var(--darkreader-background-fefefe, #191b1c);"></path>
<path d="M0 0 L1 0 L1.41 3.81 C4.18 26.85 13.97 45.94 32 61 c7.93 6.09 16.54 10.75 26 14 l3.11 1.07 c14.94 4.27 30.44 3.5 45.84 3.45 c4.34 -0.01 8.68 0.01 13.02 0.02 c8.48 0.02 16.96 0.01 25.45 0 l20.7 -0.01 l2.99 0 l6.01 0 c18.74 0.01 37.48 -0 56.23 -0.02 c16.05 -0.02 32.09 -0.02 48.13 0 c18.68 0.02 37.35 0.03 56.02 0.02 l5.99 -0 l2.98 -0 l20.65 0.01 c8.4 0.01 16.8 0.01 25.2 -0.01 c4.28 -0.01 8.56 -0.02 12.83 -0 c32.31 0.09 60.31 -2.58 84.73 -25.91 C500.99 39.91 508.87 21.77 511 3 l1 0 c0.09 11.33 0.16 22.66 0.21 33.98 c0.02 5.26 0.05 10.52 0.1 15.79 c0.04 5.09 0.07 10.18 0.08 15.27 l0.04 5.79 c0.27 24.59 -5.82 46.43 -23.06 64.77 l-2.37 2.41 l-2.31 2.34 c-16.38 15.69 -37.31 21.98 -59.6 21.92 l-4.53 0.01 l-12.4 0.01 l-13.39 0.02 l-26.22 0.02 l-21.33 0.01 l-60.52 0.03 l-3.29 0 l-3.3 -0 c-17.63 0 -35.25 0.02 -52.88 0.05 c-18.12 0.03 -36.23 0.04 -54.35 0.04 c-10.16 -0 -20.33 0 -30.49 0.03 c-8.66 0.02 -17.31 0.02 -25.97 0.01 c-4.41 -0.01 -8.82 -0.01 -13.23 0.01 c-4.05 0.02 -8.1 0.01 -12.15 -0 l-4.36 0.01 C62.52 165.69 41.22 156.94 24 140 l-2.34 -2.31 C7.87 123.29 -0.4 103.4 -0.23 83.44 l-0 -2.75 l0.03 -8.91 l0.01 -6.22 L-0.14 49.27 l0.04 -16.65 C-0.08 21.75 -0.04 10.87 0 0 Z" fill="#2E6AE9" transform="translate(0 347)" data-darkreader-inline-fill="" style="--darkreader-inline-fill: var(--darkreader-background-2e6ae9, #1243ac);"></path>
<path d="M0 0 C8.94 4.1 13.28 10.53 16.8 19.48 c4.41 13.38 3.07 28.32 -3.06 40.87 c-3.47 6.67 -8.96 10.65 -16 13 c-6.79 0.78 -12.18 0.32 -18 -3.4 c-8.15 -6.53 -11.68 -16.49 -13 -26.6 c-0.74 -13.47 0.11 -26.09 9 -37 C-16.87 0.24 -9.61 -2.76 0 0 Z" fill="#100F0E" transform="translate(383.26 220.65)" data-darkreader-inline-fill="" style="--darkreader-inline-fill: var(--darkreader-background-100f0e, #0b0c0d);"></path>
<path d="M0 0 C9.56 5.49 14.41 12.2 17.48 22.75 c2.9 12.23 1.69 26.67 -4.5 37.66 C9.24 65.69 4.43 70.43 -1.63 72.94 c-7.56 1.15 -13.47 0.22 -19.81 -4.09 C-28.81 62.43 -32.51 53.46 -33.63 43.94 c-0.75 -12.49 -0.62 -25.98 8 -36 C-17.57 0.09 -11.31 -3.32 0 0 Z" fill="#15152B" transform="translate(146.63 221.06)" data-darkreader-inline-fill="" style="--darkreader-inline-fill: var(--darkreader-background-15152b, #111122);"></path>
<path d="M0 0 L2.55 -0.07 C8.71 -0.1 14.66 0.51 19.51 4.73 c2.17 2.55 1.71 5.04 1.59 8.25 c-0.41 3.26 -1.53 5.52 -3.29 8.28 l-1.62 2.56 c-3.29 3.38 -7.1 5.5 -11.38 7.44 l-2 0 c1.8 4.84 4.03 7.56 8.43 10.09 c6.53 2.32 14.47 1.93 21.01 -0.27 c2.76 -1.4 4.88 -2.72 7.31 -4.56 c3.25 -2.25 3.25 -2.25 5.39 -2.02 c1.86 0.77 1.86 0.77 2.86 2.77 c0.5 3.73 0.43 5.41 -1.81 8.5 C37.85 52.96 28.95 55.68 18.34 55.6 C9.76 54.75 2.45 50.53 -4.19 45.25 l-1.55 1.39 c-7.39 6.24 -15.6 10.19 -25.45 9.61 c-6.52 -1.4 -12.39 -4.47 -18 -8 l-1.9 -1.19 c-1.66 -1.19 -1.66 -1.19 -4.1 -3.81 c-0.44 -3.75 -0.44 -3.75 0 -7 c1 -1 1 -1 4.06 -1.44 c4.7 0.52 6.61 2.04 10.14 5.03 c4.97 3.9 12.85 3.08 18.9 2.69 c4.25 -0.63 7.25 -3.02 9.89 -6.28 c1.18 -2.11 1.18 -2.11 2 -4 l-2.01 -1.1 c-7.62 -4.34 -12.72 -8.48 -15.99 -16.9 c-0.52 -4.26 -0.49 -6.23 1.81 -9.88 C-20.25 -1.57 -8.04 0.11 0 0 Z" fill="#151527" transform="translate(259.19 284.75)" data-darkreader-inline-fill="" style="--darkreader-inline-fill: var(--darkreader-background-151527, #11111f);"></path>
</svg><style>@media (prefers-color-scheme: light) { :root { filter: none; } }
@media (prefers-color-scheme: dark) { :root { filter: none; } }
</style></svg><style>@media (prefers-color-scheme: light) { :root { filter: none; } }
@media (prefers-color-scheme: dark) { :root { filter: none; } }
</style></svg>