<?xml version="1.0" encoding="UTF-8"?>
<svg id="b" data-name="Layer 2" xmlns="http://www.w3.org/2000/svg" viewBox="0 0 1775.97 271.39">
  <g id="c" data-name="Layer 1">
    <g>
      <g>
        <g>
          <path d="M116.1,169.84c4.35-.31,8.59-.82,12.89-1.48-4.3.61-8.59,1.13-12.89,1.48ZM81.57,169.17c5.11.61,10.28,1.02,15.45,1.13-5.16-.15-10.33-.56-15.45-1.13ZM154.46,226.87c-.41-2.3.82-4.6,3.02-5.52.36-.15.77-.31,1.12-.51-6.09-.51-12.07-1.33-17.85-2.46-20.15-3.89-39.44-11.41-57.44-22.4-16.27-9.92-30.69-22.2-43.12-36.62-6.24-2.25-12.38-4.91-18.41-7.93-.77-.36-1.43-.97-1.89-1.64,15.6,22.4,35.09,40.87,58.11,54.93,19.03,11.61,39.49,19.59,60.81,23.68,6.55,1.28,13.4,2.2,20.31,2.71-2.35-.15-4.25-1.89-4.66-4.24ZM116.1,169.84c4.35-.31,8.59-.82,12.89-1.48-4.3.61-8.59,1.13-12.89,1.48ZM81.57,169.17c5.11.61,10.28,1.02,15.45,1.13-5.16-.15-10.33-.56-15.45-1.13Z"/>
          <path d="M325.7,71.53c-13.14-7.52-29.67-6.8-42.15,1.84-4.04,2.81-7.47,6.29-10.23,10.38-.1.15-.2.26-.26.41-.1.15-.15.26-.2.41-.36.66-.77,1.33-1.33,2.35-.15.26-.31.51-.51.82-.1.15-.25.36-.36.56-1.59,2.76-3.38,5.47-5.42,8.23l-.05.05c-8.03,11.25-18.11,20.77-29.46,28.23-.05,2.15-.2,4.35-.51,6.44-.31,2.25-.71,4.45-1.33,6.65,4.35-2.4,8.54-5.11,12.53-8.08v-.05c3.38-2.35,6.6-5.01,9.67-7.77-.66,1.58-1.38,3.17-2.1,4.71-.66,1.43-1.33,2.86-2.05,4.3-.72,1.48-1.43,2.97-2.25,4.4-.92,1.79-1.89,3.58-2.91,5.32-.61,1.18-1.33,2.35-2,3.48-.87,1.48-1.74,2.92-2.66,4.35-.1.15-.15.25-.25.41-.05.1-.1.15-.2.26-.61,1.07-1.33,2.15-2.05,3.17-1.79,2.71-3.68,5.42-5.68,8.08-.61.92-1.33,1.79-1.99,2.66-.05.05-.1.15-.15.2-1.02,1.33-2.05,2.61-3.12,3.89-1.28,1.64-2.66,3.27-4.04,4.86-1.74,1.94-3.48,3.89-5.32,5.78-1.28,1.33-2.56,2.66-3.84,3.94-1.54,1.53-3.12,3.07-4.76,4.55-1.99,1.84-3.99,3.63-6.03,5.37-2.05,1.74-4.09,3.43-6.19,5.06-2,1.59-3.99,3.07-6.04,4.55-2.1,1.53-4.25,3.02-6.45,4.45-.56.36-1.18.77-1.74,1.13-1.33.87-2.66,1.69-3.99,2.51-.82.51-1.69,1.02-2.56,1.53-1.38.82-2.81,1.64-4.25,2.4-1.43.82-2.86,1.59-4.3,2.3-.1.05-.25.15-.36.2-1.33.72-2.61,1.38-3.99,2.05-2.05,1.02-4.14,1.99-6.24,2.91-.36.2-.77.36-1.12.51-2.2.92-3.43,3.22-3.02,5.52.41,2.35,2.3,4.09,4.66,4.24.1,0,.25.05.36.05h.46c4.45.31,8.75.46,12.89.46,67.97-.05,131.2-38.92,165-101.48,1.23-2.35,2.51-4.71,3.63-7.11,9.05-18.57,2.15-41.17-15.75-51.51ZM332.25,118.54v.05c-1.07,2.3-2.25,4.55-3.43,6.75-30.74,56.83-87.11,93.04-148.38,95.9,1.18-.67,2.35-1.38,3.53-2.1,2.41-1.43,4.81-2.91,7.16-4.45,1.95-1.28,3.94-2.61,5.83-3.99,2.97-2.1,5.88-4.25,8.7-6.55,1.74-1.33,3.43-2.71,5.11-4.19.87-.72,1.74-1.43,2.56-2.2,1.48-1.28,2.91-2.56,4.35-3.89,2.66-2.46,5.21-4.96,7.67-7.57,1.23-1.23,2.46-2.51,3.58-3.78.56-.56,1.07-1.13,1.59-1.74,1.38-1.48,2.71-3.02,3.99-4.6.66-.77,1.33-1.59,2.05-2.4,1.43-1.74,2.81-3.48,4.14-5.27.05-.1.15-.15.2-.26,2.66-3.48,5.16-7.01,7.62-10.69,1.28-1.94,2.56-3.94,3.73-5.93,1.18-1.94,2.35-3.89,3.43-5.83,1.13-2,2.2-3.99,3.27-5.98.77-1.48,1.48-2.92,2.25-4.4.46-.92.92-1.84,1.33-2.81.77-1.69,1.54-3.38,2.3-5.06.92-2.1,1.79-4.19,2.61-6.29,1.74-4.25,3.22-8.54,4.6-12.89.71-2.15,1.38-4.3,1.99-6.5v-.05c2.05-2.81,3.84-5.57,5.52-8.44.31-.46.61-.97.97-1.64.51-.82.92-1.59,1.43-2.51,2-2.92,4.5-5.42,7.42-7.47,9.21-6.39,21.48-6.91,31.2-1.33,13.25,7.62,18.41,24.4,11.66,38.11Z"/>
        </g>
        <path d="M129.35,168.3c-.1,0-.2.05-.31.05h-.05c-4.3.61-8.59,1.13-12.89,1.48h-.05c-1.94.15-3.94.26-5.93.31-2.2.1-4.45.2-6.7.15-.41.05-.82.05-1.23.05h-1.23c-1.33,0-2.61,0-3.94-.05-5.16-.15-10.33-.56-15.45-1.13-1.74-.2-3.43-.41-5.16-.66-1.69-.26-3.38-.51-5.11-.82-1.69-.31-3.38-.61-5.06-.97-1.64-.31-3.22-.66-4.86-1.02-1.74-.41-3.53-.87-5.27-1.33-.97-.25-1.94-.51-2.91-.82-1.28-.31-2.51-.72-3.79-1.13-1.07-.31-2.15-.61-3.22-1.02-2-.61-3.99-1.33-5.98-2.05-6.24-2.25-12.38-4.91-18.41-7.93-.77-.36-1.43-.97-1.89-1.64-.15-.26-.31-.46-.46-.72-5.01-7.16-9.72-14.99-13.96-23.32-.77-1.59-1.53-3.17-2.35-4.81-.15-.31-.36-.72-.46-1.07-4.3-11.1-3.33-23.43,2.61-33.76,10.84-18.87,34.98-25.37,53.86-14.58,5.73,3.32,10.53,8.08,13.96,13.66.31.51.46.82.66,1.13,8.85,15.5,21.18,28.64,36.01,38.52.05,2.15.2,4.35.51,6.44.3,2.25.71,4.45,1.28,6.65-.2-.1-.46-.26-.67-.36-4.09-2.35-8.03-4.96-11.82-7.72v-.05c-13.91-10.23-25.52-23.27-34.06-38.21-.2-.31-.51-.77-.77-1.28-2.41-3.94-5.99-7.42-10.23-9.87-13.97-8.03-31.82-3.17-39.85,10.74-4.45,7.72-5.11,16.83-1.95,25.06.87,1.79,1.59,3.32,2.36,4.86,3.99,7.72,8.34,15.04,12.94,21.74,1.59.77,3.17,1.53,4.76,2.25,1.38.61,2.76,1.23,4.19,1.79,1.48.61,2.97,1.23,4.5,1.84,6.09,2.35,12.23,4.3,18.46,5.93,1.54.41,3.07.82,4.66,1.13,12.53,2.92,25.32,4.35,38.11,4.35,4.25,0,8.54-.15,12.79-.46.97-.1,1.94-.15,2.91-.26,1.18-.1,2.3-.26,3.43-.36,2.35,3.38,5.06,6.45,8.03,9.26Z"/>
        <path d="M201.87,26.67h-58.26c-18.67,0-33.91,15.19-33.91,33.91v62.3c0,.66,0,1.28.05,1.94.05,2.15.2,4.35.51,6.44.3,2.25.71,4.45,1.28,6.65,1.89,7.67,5.27,14.83,9.77,21.12,2.35,3.38,5.06,6.45,8.03,9.26h.05c.26.31.51.56.77.77,11.1,10.13,25.83,16.27,41.99,16.27h1.18c16.11,0,30.89-6.14,42-16.27,0,0,.05-.05.1-.1,8.95-8.18,15.5-18.92,18.47-31.05.61-2.2,1.02-4.4,1.33-6.65.31-2.1.46-4.3.51-6.44.05-.66.05-1.28.05-1.94v-62.3c0-18.72-15.24-33.91-33.91-33.91ZM225.56,122.88c0,2.81-.2,5.63-.67,8.29-.36,2.25-.82,4.4-1.48,6.5-.66,2.3-1.48,4.5-2.46,6.65-8.18,18.16-26.44,30.79-47.62,30.79h-1.18c-11,0-21.28-3.43-29.72-9.31-3.48-2.4-6.7-5.27-9.52-8.44l-.05-.05c-3.38-3.89-6.24-8.29-8.39-13.04-.97-2.15-1.79-4.35-2.41-6.65-.66-2.1-1.12-4.25-1.48-6.5-.46-2.66-.66-5.42-.66-8.23v-62.3c0-13.04,10.64-23.68,23.68-23.68h58.26c13.04,0,23.68,10.64,23.68,23.68v62.3Z"/>
        <g>
          <path d="M209.24,76.59v.2c0,3.53-2.86,6.34-6.39,6.34h-60.2c-3.53,0-6.39-2.81-6.39-6.34v-.2c0-3.53,2.86-6.39,6.39-6.39h60.2c3.53,0,6.39,2.86,6.39,6.39Z"/>
          <rect x="136.25" y="97.16" width="72.99" height="12.99" rx="6.39" ry="6.39"/>
          <path d="M209.24,130.51v.2c0,3.53-2.86,6.39-6.39,6.39h-60.2c-3.53,0-6.39-2.86-6.39-6.39v-.2c0-3.53,2.86-6.34,6.39-6.34h60.2c3.53,0,6.39,2.81,6.39,6.34Z"/>
        </g>
      </g>
      <g>
        <path d="M601.93,80.12c8.85,10.24,13.28,25.99,13.28,47.24v83.57h-38.48v-74.24c0-24.89-8.38-37.33-25.13-37.33-5.46,0-10.39,1.48-14.79,4.45-4.4,2.97-7.92,7.49-10.55,13.57-2.63,6.08-3.95,13.28-3.95,21.61v71.94h-38.48v-74.24c0-24.89-8.47-37.33-25.42-37.33-5.84,0-11.01,1.48-15.51,4.45s-8.09,7.49-10.77,13.57c-2.68,6.08-4.02,13.28-4.02,21.61v71.8h-38.48V67.2h38.48v18.95h.43c5.65-6.89,12.21-12.18,19.67-15.87,7.47-3.69,15.22-5.53,23.26-5.53,20.01,0,34.22,7.71,42.65,23.12h.43c5.84-7.47,13.04-13.19,21.61-17.16,8.57-3.97,18.02-5.96,28.36-5.96,16.08,0,28.55,5.12,37.41,15.36Z"/>
        <path d="M784.94,151.49h-100.66c2.3,8.52,6.68,15.22,13.14,20.1,6.46,4.88,14.29,7.37,23.48,7.47,13.88.1,25.32-5.31,34.32-16.23l24.99,23.26c-6.51,8.23-15.03,14.81-25.56,19.74s-22.69,7.4-36.47,7.4-26.56-3.04-37.76-9.12c-11.2-6.08-20.03-14.81-26.49-26.21s-9.69-24.41-9.69-39.06c0-10.72,1.82-20.7,5.46-29.94,3.64-9.24,8.59-17.09,14.86-23.55,6.27-6.46,13.81-11.51,22.62-15.15,8.81-3.64,18.24-5.46,28.29-5.46,13.88,0,26.18,3.14,36.9,9.41,10.72,6.27,19,14.93,24.84,25.99,5.84,11.06,8.76,23.57,8.76,37.55,0,6.8-.34,11.39-1.01,13.78ZM696.27,105.11c-5.7,4.31-9.64,10.53-11.85,18.67h63.32c-2.01-7.85-5.65-14-10.91-18.45-5.27-4.45-11.97-6.68-20.1-6.68s-14.77,2.15-20.46,6.46Z"/>
        <path d="M949.5,151.49h-100.66c2.3,8.52,6.68,15.22,13.14,20.1,6.46,4.88,14.29,7.37,23.48,7.47,13.88.1,25.32-5.31,34.32-16.23l24.99,23.26c-6.51,8.23-15.03,14.81-25.56,19.74s-22.69,7.4-36.47,7.4-26.56-3.04-37.76-9.12c-11.2-6.08-20.03-14.81-26.49-26.21-6.46-11.39-9.69-24.41-9.69-39.06,0-10.72,1.82-20.7,5.46-29.94,3.64-9.24,8.59-17.09,14.86-23.55s13.81-11.51,22.62-15.15c8.81-3.64,18.24-5.46,28.29-5.46,13.88,0,26.18,3.14,36.9,9.41,10.72,6.27,19,14.93,24.84,25.99,5.84,11.06,8.76,23.57,8.76,37.55,0,6.8-.34,11.39-1.01,13.78ZM860.83,105.11c-5.7,4.31-9.64,10.53-11.85,18.67h63.32c-2.01-7.85-5.65-14-10.91-18.45-5.27-4.45-11.97-6.68-20.1-6.68s-14.77,2.15-20.46,6.46Z"/>
        <path d="M995.81,201.1c-7.32-8.09-10.98-19.98-10.98-35.68v-66.34h-16.94v-31.88h16.94V20.25l38.48-4.16v51.12h39.06v31.88h-39.06v61.03c0,6.32.98,10.96,2.94,13.93,1.96,2.97,5.19,4.45,9.69,4.45,5.55,0,11.58-1.68,18.09-5.03l9.91,30.73c-5.46,2.97-10.96,5.22-16.51,6.75-5.55,1.53-12.73,2.3-21.54,2.3-12.73,0-22.76-4.04-30.08-12.13Z"/>
        <path d="M1099.91,43.8c-3.69-2.11-6.58-4.95-8.69-8.54s-3.16-7.54-3.16-11.85c0-6.41,2.32-11.92,6.96-16.51,4.64-4.59,10.27-6.89,16.87-6.89s12.11,2.3,16.8,6.89c4.69,4.59,7.04,10.1,7.04,16.51s-2.35,12.06-7.04,16.66c-4.69,4.59-10.29,6.89-16.8,6.89-4.31,0-8.3-1.05-11.99-3.16ZM1092.66,67.2h38.48v143.59h-38.48V67.2Z"/>
        <path d="M1278.11,68.13c6.17,2.25,11.63,5.72,16.37,10.41s8.35,11.01,10.84,18.95c2.49,7.95,3.73,17.33,3.73,28.14v85.29h-38.48v-75.67c0-13.21-2.25-22.5-6.75-27.86-4.5-5.36-11.44-8.04-20.82-8.04-9.96,0-17.88,3.4-23.76,10.2-5.89,6.8-8.83,16.47-8.83,29.01v72.23h-38.48V67.2h38.48v18.52h.43c5.84-6.8,12.76-11.99,20.75-15.58,7.99-3.59,16.44-5.38,25.34-5.38,7.95,0,15.01,1.12,21.18,3.37Z"/>
        <path d="M1486.25,67.2v127.08c0,9.19-.81,17.61-2.44,25.27-1.63,7.66-4.31,14.72-8.04,21.18-3.73,6.46-8.47,11.94-14.22,16.44s-12.85,7.99-21.32,10.48c-8.47,2.49-18.12,3.73-28.93,3.73-22.4,0-42.02-4.83-58.87-14.5l8.9-32.45c7.85,4.31,15.46,7.61,22.83,9.91,7.37,2.3,15.32,3.45,23.84,3.45,12.92,0,22.93-3.02,30.01-9.05,7.08-6.03,10.63-13.64,10.63-22.83v-14.5h-.72c-10.63,11.2-24.55,16.8-41.79,16.8-13.11,0-24.87-2.97-35.25-8.9-10.39-5.94-18.52-14.29-24.41-25.06-5.89-10.77-8.83-23-8.83-36.69s2.85-26.37,8.54-37.48c5.7-11.1,13.62-19.77,23.76-25.99,10.15-6.22,21.54-9.33,34.18-9.33,8.23,0,16.06,1.46,23.48,4.38s13.9,7.2,19.46,12.85h.72v-14.79h38.48ZM1439.29,162.83c6.8-6.99,10.2-15.89,10.2-26.71s-3.47-19.58-10.41-26.28c-6.94-6.7-15.58-10.05-25.92-10.05s-19.48,3.4-26.28,10.2-10.2,15.6-10.2,26.42c0,4.5.6,8.69,1.79,12.56s2.9,7.3,5.1,10.27,4.81,5.5,7.83,7.61,6.37,3.71,10.05,4.81c3.69,1.1,7.59,1.65,11.7,1.65,10.63,0,19.34-3.49,26.13-10.48Z"/>
        <path d="M1507.53,207.14c-3.87-3.79-5.8-8.4-5.8-13.82s1.93-10.05,5.8-13.88c3.87-3.83,8.6-5.74,14.18-5.74s10.07,1.93,13.94,5.8c3.87,3.87,5.8,8.48,5.8,13.82s-1.93,9.93-5.8,13.76-8.52,5.74-13.94,5.74-10.31-1.89-14.18-5.68Z"/>
        <path d="M1693.41,67.2v143.59h-36.62v-17.37h-.72c-10.24,13.21-24.55,19.82-42.93,19.82-9.86,0-19.03-1.77-27.5-5.31s-15.75-8.5-21.83-14.86c-6.08-6.37-10.84-14.17-14.29-23.41-3.45-9.24-5.17-19.31-5.17-30.23s1.72-20.73,5.17-30.01c3.45-9.29,8.16-17.18,14.14-23.69s13.16-11.63,21.54-15.36c8.38-3.73,17.3-5.6,26.78-5.6,17.52,0,31.64,6.22,42.36,18.67h.57v-16.23h38.48ZM1646.02,167.86c6.99-7.28,10.48-16.7,10.48-28.29s-3.42-21.06-10.27-28.72c-6.84-7.66-15.48-11.49-25.92-11.49s-19.31,3.69-26.35,11.06c-7.04,7.37-10.55,17.09-10.55,29.15s3.42,21.01,10.27,28.29c6.84,7.28,15.68,10.91,26.49,10.91,10.24,0,18.86-3.64,25.85-10.91Z"/>
        <path d="M1740.15,43.8c-3.69-2.11-6.58-4.95-8.69-8.54s-3.16-7.54-3.16-11.85c0-6.41,2.32-11.92,6.96-16.51,4.64-4.59,10.27-6.89,16.87-6.89s12.11,2.3,16.8,6.89,7.04,10.1,7.04,16.51-2.35,12.06-7.04,16.66-10.29,6.89-16.8,6.89c-4.31,0-8.3-1.05-11.99-3.16ZM1732.89,67.2h38.48v143.59h-38.48V67.2Z"/>
      </g>
    </g>
  </g>
</svg>